<svg class="animated" id="freepik_stories-thesis" xmlns="http://www.w3.org/2000/svg" viewBox="0 0 500 500" version="1.1" xmlns:xlink="http://www.w3.org/1999/xlink" xmlns:svgjs="http://svgjs.com/svgjs"><style>svg#freepik_stories-thesis:not(.animated) .animable {opacity: 0;}svg#freepik_stories-thesis.animated #freepik--Thesis--inject-2 {animation: 3s Infinite  linear floating;animation-delay: 0s;}svg#freepik_stories-thesis.animated #freepik--Device--inject-2 {animation: 3s Infinite  linear wind;animation-delay: 0s;}svg#freepik_stories-thesis.animated #freepik--Character--inject-2 {animation: 1s 1 forwards cubic-bezier(.36,-0.01,.5,1.38) fadeIn,3s Infinite  linear floating;animation-delay: 0s,1s;}            @keyframes floating {                0% {                    opacity: 1;                    transform: translateY(0px);                }                50% {                    transform: translateY(-10px);                }                100% {                    opacity: 1;                    transform: translateY(0px);                }            }                    @keyframes wind {                0% {                    transform: rotate( 0deg );                }                25% {                    transform: rotate( 1deg );                }                75% {                    transform: rotate( -1deg );                }            }                    @keyframes fadeIn {                0% {                    opacity: 0;                }                100% {                    opacity: 1;                }            }        </style><g id="freepik--background-complete--inject-2" class="animable" style="transform-origin: 250px 228.23px;"><rect x="416.78" y="398.49" width="33.12" height="0.25" style="fill: rgb(235, 235, 235); transform-origin: 433.34px 398.615px;" id="elu2cfm0im2ze" class="animable"></rect><rect x="322.53" y="401.21" width="8.69" height="0.25" style="fill: rgb(235, 235, 235); transform-origin: 326.875px 401.335px;" id="elacmewbou4q4" class="animable"></rect><rect x="396.59" y="389.21" width="19.19" height="0.25" style="fill: rgb(235, 235, 235); transform-origin: 406.185px 389.335px;" id="eleemlhkr5hd4" class="animable"></rect><rect x="52.46" y="390.89" width="43.19" height="0.25" style="fill: rgb(235, 235, 235); transform-origin: 74.055px 391.015px;" id="eljla4ghxjsud" class="animable"></rect><rect x="104.56" y="390.89" width="6.33" height="0.25" style="fill: rgb(235, 235, 235); transform-origin: 107.725px 391.015px;" id="elnnhxigpc9bm" class="animable"></rect><rect x="131.47" y="395.11" width="93.68" height="0.25" style="fill: rgb(235, 235, 235); transform-origin: 178.31px 395.235px;" id="elgnraclaneo" class="animable"></rect><path d="M238.4,337.8H45.3a5.71,5.71,0,0,1-5.71-5.71V60.66A5.71,5.71,0,0,1,45.3,55H238.4a5.71,5.71,0,0,1,5.71,5.71V332.09A5.71,5.71,0,0,1,238.4,337.8ZM45.3,55.2a5.47,5.47,0,0,0-5.46,5.46V332.09a5.47,5.47,0,0,0,5.46,5.46H238.4a5.47,5.47,0,0,0,5.46-5.46V60.66a5.47,5.47,0,0,0-5.46-5.46Z" style="fill: rgb(235, 235, 235); transform-origin: 141.85px 196.4px;" id="elhey15ij09td" class="animable"></path><path d="M454.7,337.8H261.6a5.71,5.71,0,0,1-5.71-5.71V60.66A5.71,5.71,0,0,1,261.6,55H454.7a5.71,5.71,0,0,1,5.71,5.71V332.09A5.71,5.71,0,0,1,454.7,337.8ZM261.6,55.2a5.47,5.47,0,0,0-5.46,5.46V332.09a5.47,5.47,0,0,0,5.46,5.46H454.7a5.47,5.47,0,0,0,5.46-5.46V60.66a5.47,5.47,0,0,0-5.46-5.46Z" style="fill: rgb(235, 235, 235); transform-origin: 358.15px 196.4px;" id="el8qnarompnrb" class="animable"></path><rect y="382.4" width="500" height="0.25" style="fill: rgb(235, 235, 235); transform-origin: 250px 382.525px;" id="elkks2dxna86e" class="animable"></rect><polygon points="418.92 204.99 347.23 204.99 339 110.86 410.69 110.86 418.92 204.99" style="fill: rgb(245, 245, 245); transform-origin: 378.96px 157.925px;" id="elpsqbrv5j4x" class="animable"></polygon><path d="M393.05,123H356.92a.93.93,0,0,1-.92-.84h0a.77.77,0,0,1,.77-.85H392.9a.94.94,0,0,1,.92.85h0A.75.75,0,0,1,393.05,123Z" style="fill: rgb(224, 224, 224); transform-origin: 374.911px 122.155px;" id="el19e5zlh8g3s" class="animable"></path><path d="M405.19,169.05H361a.94.94,0,0,1-.92-.85h0a.77.77,0,0,1,.77-.85h44.25a1,1,0,0,1,.92.85h0A.77.77,0,0,1,405.19,169.05Z" style="fill: rgb(224, 224, 224); transform-origin: 383.05px 168.201px;" id="elv7tuer00tug" class="animable"></path><path d="M405.62,174H355.1a.94.94,0,0,1-.92-.85h0a.77.77,0,0,1,.77-.85h50.53a1,1,0,0,1,.92.85h0A.77.77,0,0,1,405.62,174Z" style="fill: rgb(224, 224, 224); transform-origin: 380.29px 173.15px;" id="elo52oneahr5" class="animable"></path><path d="M406.06,178.89H355.53a.94.94,0,0,1-.92-.85h0a.77.77,0,0,1,.77-.85h50.53a1,1,0,0,1,.92.85h0A.77.77,0,0,1,406.06,178.89Z" style="fill: rgb(224, 224, 224); transform-origin: 380.72px 178.04px;" id="eldf5gvab2slq" class="animable"></path><path d="M406.49,183.81H356A1,1,0,0,1,355,183h0a.77.77,0,0,1,.77-.85h50.53a.94.94,0,0,1,.92.85h0A.77.77,0,0,1,406.49,183.81Z" style="fill: rgb(224, 224, 224); transform-origin: 381.108px 182.98px;" id="elourudaivnxf" class="animable"></path><path d="M406.92,188.73H362.67a1,1,0,0,1-.92-.85h0a.77.77,0,0,1,.77-.85h44.25a.94.94,0,0,1,.92.85h0A.77.77,0,0,1,406.92,188.73Z" style="fill: rgb(224, 224, 224); transform-origin: 384.72px 187.88px;" id="el7en9jah1kpa" class="animable"></path><path d="M407.35,193.65H356.82a1,1,0,0,1-.92-.85h0a.76.76,0,0,1,.78-.84H407.2a.93.93,0,0,1,.92.84h0A.77.77,0,0,1,407.35,193.65Z" style="fill: rgb(224, 224, 224); transform-origin: 382.01px 192.805px;" id="eljbs2nggkktl" class="animable"></path><path d="M407.78,198.57H357.25a1,1,0,0,1-.92-.85h0a.76.76,0,0,1,.78-.84h50.52a.93.93,0,0,1,.92.84h0A.77.77,0,0,1,407.78,198.57Z" style="fill: rgb(224, 224, 224); transform-origin: 382.44px 197.725px;" id="elpwmcucto9ws" class="animable"></path><path d="M389.31,128.62H361.65a.94.94,0,0,1-.92-.85h0a.76.76,0,0,1,.77-.85h27.66a.94.94,0,0,1,.92.85h0A.76.76,0,0,1,389.31,128.62Z" style="fill: rgb(224, 224, 224); transform-origin: 375.405px 127.77px;" id="el6wn9gbnyy93" class="animable"></path><path d="M385.28,134.24H366.66a.94.94,0,0,1-.92-.85h0a.75.75,0,0,1,.77-.84h18.63a.94.94,0,0,1,.92.84h0A.77.77,0,0,1,385.28,134.24Z" style="fill: rgb(224, 224, 224); transform-origin: 375.899px 133.395px;" id="els5xoqzrafy" class="animable"></path><g id="el90m48qp47yh"><polygon points="405.32 160.82 353.1 160.82 351.35 140.78 403.57 140.78 405.32 160.82" style="fill: rgb(224, 224, 224); opacity: 0.5; transform-origin: 378.335px 150.8px;" class="animable" id="elyulr5bbu729"></polygon></g><polygon points="68.73 274.25 127.97 274.25 134.77 196.47 75.53 196.47 68.73 274.25" style="fill: rgb(245, 245, 245); transform-origin: 101.75px 235.36px;" id="elov1fckdg3mr" class="animable"></polygon><path d="M90.11,206.5H120a.79.79,0,0,0,.76-.7h0a.63.63,0,0,0-.64-.7H90.23a.77.77,0,0,0-.76.7h0A.63.63,0,0,0,90.11,206.5Z" style="fill: rgb(224, 224, 224); transform-origin: 105.115px 205.8px;" id="elm45p1wahxgn" class="animable"></path><path d="M80.07,244.55h36.56a.77.77,0,0,0,.76-.7h0a.63.63,0,0,0-.64-.7H80.2a.79.79,0,0,0-.77.7h0A.64.64,0,0,0,80.07,244.55Z" style="fill: rgb(224, 224, 224); transform-origin: 98.4106px 243.85px;" id="elzdu86akzgdc" class="animable"></path><path d="M79.72,248.61h41.74a.77.77,0,0,0,.76-.7h0a.63.63,0,0,0-.64-.7H79.84a.78.78,0,0,0-.76.7h0A.63.63,0,0,0,79.72,248.61Z" style="fill: rgb(224, 224, 224); transform-origin: 100.65px 247.91px;" id="ellucatdkx4if" class="animable"></path><path d="M79.36,252.68h41.75a.78.78,0,0,0,.76-.7h0a.63.63,0,0,0-.64-.7H79.48a.78.78,0,0,0-.76.7h0A.63.63,0,0,0,79.36,252.68Z" style="fill: rgb(224, 224, 224); transform-origin: 100.295px 251.98px;" id="eluwsuk556mzk" class="animable"></path><path d="M79,256.74h41.74a.77.77,0,0,0,.76-.7h0a.63.63,0,0,0-.64-.7H79.13a.78.78,0,0,0-.76.7h0A.63.63,0,0,0,79,256.74Z" style="fill: rgb(224, 224, 224); transform-origin: 99.935px 256.04px;" id="elc4k6jttojg4" class="animable"></path><path d="M78.65,260.81h36.56a.78.78,0,0,0,.76-.7h0a.63.63,0,0,0-.64-.7H78.77a.78.78,0,0,0-.76.7h0A.63.63,0,0,0,78.65,260.81Z" style="fill: rgb(224, 224, 224); transform-origin: 96.99px 260.11px;" id="elnyyffsmwwmk" class="animable"></path><path d="M78.29,264.88H120a.78.78,0,0,0,.76-.7h0a.63.63,0,0,0-.64-.7H78.42a.77.77,0,0,0-.76.7h0A.63.63,0,0,0,78.29,264.88Z" style="fill: rgb(224, 224, 224); transform-origin: 99.21px 264.18px;" id="elvsxgll6fwkg" class="animable"></path><path d="M77.94,268.94h41.74a.77.77,0,0,0,.76-.7h0a.62.62,0,0,0-.63-.7H78.06a.77.77,0,0,0-.76.7h0A.63.63,0,0,0,77.94,268.94Z" style="fill: rgb(224, 224, 224); transform-origin: 98.8706px 268.24px;" id="ely8ipyemzbu" class="animable"></path><path d="M93.2,211.14h22.85a.77.77,0,0,0,.76-.7h0a.63.63,0,0,0-.63-.7H93.32a.78.78,0,0,0-.76.7h0A.63.63,0,0,0,93.2,211.14Z" style="fill: rgb(224, 224, 224); transform-origin: 104.685px 210.44px;" id="elgsq5mj26bjc" class="animable"></path><path d="M96.52,215.79h15.4a.79.79,0,0,0,.76-.7h0a.64.64,0,0,0-.64-.7H96.65a.77.77,0,0,0-.76.7h0A.63.63,0,0,0,96.52,215.79Z" style="fill: rgb(224, 224, 224); transform-origin: 104.284px 215.09px;" id="elrkyx3ovl0d" class="animable"></path><g id="el2zeycbd5lvv"><polygon points="79.97 237.75 123.11 237.75 124.56 221.19 81.42 221.19 79.97 237.75" style="fill: rgb(224, 224, 224); opacity: 0.5; transform-origin: 102.265px 229.47px;" class="animable" id="elw1ur6xk23zi"></polygon></g><polygon points="201 185.38 277.38 185.38 286.16 85.08 209.77 85.08 201 185.38" style="fill: rgb(250, 250, 250); transform-origin: 243.58px 135.23px;" id="elzzjsz8y46" class="animable"></polygon><path d="M228.56,98h38.5a1,1,0,0,0,1-.9h0a.81.81,0,0,0-.82-.9h-38.5a1,1,0,0,0-1,.9h0A.81.81,0,0,0,228.56,98Z" style="fill: rgb(230, 230, 230); transform-origin: 247.9px 97.1px;" id="el89hhelxrv9j" class="animable"></path><path d="M215.62,147.08h47.14a1,1,0,0,0,1-.9h0a.82.82,0,0,0-.83-.9H215.78a1,1,0,0,0-1,.9h0A.81.81,0,0,0,215.62,147.08Z" style="fill: rgb(230, 230, 230); transform-origin: 239.269px 146.18px;" id="elcz4lc0864p" class="animable"></path><path d="M215.17,152.33H269a1,1,0,0,0,1-.91h0a.82.82,0,0,0-.83-.9H215.32a1,1,0,0,0-1,.9h0A.83.83,0,0,0,215.17,152.33Z" style="fill: rgb(230, 230, 230); transform-origin: 242.16px 151.425px;" id="el3i26d4wjebk" class="animable"></path><path d="M214.71,157.57h53.83a1,1,0,0,0,1-.9h0a.82.82,0,0,0-.82-.91H214.86a1,1,0,0,0-1,.91h0A.82.82,0,0,0,214.71,157.57Z" style="fill: rgb(230, 230, 230); transform-origin: 241.7px 156.665px;" id="elrrls93eipqe" class="animable"></path><path d="M214.25,162.81h53.83a1,1,0,0,0,1-.9h0a.81.81,0,0,0-.82-.9H214.41a1,1,0,0,0-1,.9h0A.82.82,0,0,0,214.25,162.81Z" style="fill: rgb(230, 230, 230); transform-origin: 241.246px 161.91px;" id="elwvadhir07ot" class="animable"></path><path d="M213.79,168.05h47.14a1,1,0,0,0,1-.9h0a.81.81,0,0,0-.82-.9H214a1,1,0,0,0-1,.9h0A.8.8,0,0,0,213.79,168.05Z" style="fill: rgb(230, 230, 230); transform-origin: 237.464px 167.15px;" id="elvjzzhdo25m" class="animable"></path><path d="M213.33,173.3h53.83a1,1,0,0,0,1-.91h0a.8.8,0,0,0-.82-.9H213.49a1,1,0,0,0-1,.9h0A.81.81,0,0,0,213.33,173.3Z" style="fill: rgb(230, 230, 230); transform-origin: 240.325px 172.395px;" id="el39xmet1qk9" class="animable"></path><path d="M212.87,178.54H266.7a1,1,0,0,0,1-.9h0a.81.81,0,0,0-.82-.91H213a1,1,0,0,0-1,.91h0A.81.81,0,0,0,212.87,178.54Z" style="fill: rgb(230, 230, 230); transform-origin: 239.85px 177.636px;" id="el6abf6ozott7" class="animable"></path><path d="M232.55,104H262a1,1,0,0,0,1-.9h0a.8.8,0,0,0-.82-.9H232.71a1,1,0,0,0-1,.9h0A.8.8,0,0,0,232.55,104Z" style="fill: rgb(230, 230, 230); transform-origin: 247.355px 103.1px;" id="elnvimam8i73m" class="animable"></path><path d="M236.84,110h19.85a1,1,0,0,0,1-.9h0a.82.82,0,0,0-.83-.9H237a1,1,0,0,0-1,.9h0A.82.82,0,0,0,236.84,110Z" style="fill: rgb(230, 230, 230); transform-origin: 246.845px 109.1px;" id="el993xvakxxmp" class="animable"></path><g id="ellfrcshdl7n"><polygon points="215.49 138.31 271.13 138.31 272.99 116.96 217.36 116.96 215.49 138.31" style="fill: rgb(240, 240, 240); opacity: 0.5; transform-origin: 244.24px 127.635px;" class="animable" id="elypgocprbrnd"></polygon></g><path d="M422.86,261.11c-.26,3-9.24,4.71-20,3.77s-19.35-4.17-19.08-7.19l1.15-13.21L424,247.9Z" style="fill: rgb(235, 235, 235); transform-origin: 403.887px 254.809px;" id="eljygv2krhzwe" class="animable"></path><g id="el1l6972s5ncp"><path d="M384.57,248.17c1.49,2.74,9.42,5.41,19.16,6.27s18-.4,20-2.84l.32-3.7-39.13-3.42Z" style="fill: rgb(224, 224, 224); opacity: 0.6; transform-origin: 404.31px 249.595px;" class="animable" id="el0an6krgo0he"></path></g><path d="M403.63,253.1l-31.47-12.79a.74.74,0,0,1,.07-1.4l33.44-9.59a.72.72,0,0,1,.52,0l31.27,15.26a.74.74,0,0,1-.17,1.39l-33.22,7.13A.74.74,0,0,1,403.63,253.1Z" style="fill: rgb(235, 235, 235); transform-origin: 404.785px 241.202px;" id="elsxli6vpw5a" class="animable"></path><rect x="98.12" y="312.7" width="42.25" height="6.5" style="fill: rgb(240, 240, 240); transform-origin: 119.245px 315.95px;" id="els0r4xbc21aj" class="animable"></rect><path d="M99.52,316.45H139a3.27,3.27,0,0,1,3.27,3.27v63.73h-46V319.72a3.26,3.26,0,0,1,3.27-3.27Z" style="fill: rgb(230, 230, 230); transform-origin: 119.27px 349.95px;" id="elxus1bhjfr4" class="animable"></path><rect x="96.25" y="304.7" width="46" height="10" rx="3.61" style="fill: rgb(230, 230, 230); transform-origin: 119.25px 309.7px;" id="el7dv3814a8o4" class="animable"></rect><polygon points="148.2 383.45 126.7 383.45 126.7 380.45 148.2 378.45 148.2 383.45" style="fill: rgb(245, 245, 245); transform-origin: 137.45px 380.95px;" id="elrmsyxnmhv1" class="animable"></polygon></g><g id="freepik--Shadow--inject-2" class="animable" style="transform-origin: 250px 415.69px;"><ellipse id="freepik--path--inject-2" cx="250" cy="415.69" rx="193.89" ry="11.32" style="fill: rgb(245, 245, 245); transform-origin: 250px 415.69px;" class="animable"></ellipse></g><g id="freepik--Thesis--inject-2" class="animable" style="transform-origin: 147.103px 194.476px;"><polygon points="194.11 133.61 183.53 254.51 96.45 246.89 103.54 255.34 190.62 262.96 201.2 142.06 194.11 133.61" style="fill: rgb(38, 50, 56); transform-origin: 148.825px 198.285px;" id="eli5188vvfstk" class="animable"></polygon><g id="el96qpuxm0b28"><polygon points="194.11 133.61 183.53 254.51 96.45 246.89 103.54 255.34 190.62 262.96 201.2 142.06 194.11 133.61" style="fill: rgb(255, 255, 255); opacity: 0.5; transform-origin: 148.825px 198.285px;" class="animable" id="elvr23uvgulgs"></polygon></g><g id="el3gg4vng6q0b"><rect x="101.57" y="129.57" width="87.41" height="121.37" style="fill: #0D4D9C; transform-origin: 145.275px 190.255px; transform: rotate(5deg);" class="animable" id="el0ssp2nbupda"></rect></g><g id="elrma1ot45qwd"><rect x="101.57" y="129.57" width="87.41" height="121.37" style="fill: rgb(255, 255, 255); opacity: 0.6; transform-origin: 145.275px 190.255px; transform: rotate(5deg);" class="animable" id="eluucgo9e3usi"></rect></g><path d="M196.49,151.17h0a.74.74,0,0,1-.67-.81l.28-3.19a.74.74,0,0,1,.8-.68h0a.74.74,0,0,1,.67.8l-.28,3.2A.74.74,0,0,1,196.49,151.17Z" style="fill: rgb(38, 50, 56); transform-origin: 196.695px 148.83px;" id="elh7fwyh3zl19" class="animable"></path><path d="M191.22,211.37h0a.73.73,0,0,1-.67-.8l4.83-55.22a.73.73,0,0,1,.8-.67h0a.74.74,0,0,1,.68.8L192,210.7A.73.73,0,0,1,191.22,211.37Z" style="fill: rgb(38, 50, 56); transform-origin: 193.705px 183.024px;" id="elwfmrppwzi5p" class="animable"></path><path d="M188.66,240.71h0a.76.76,0,0,1-.68-.81L190,216.53a.73.73,0,0,1,.8-.67h0a.74.74,0,0,1,.67.8l-2,23.37A.75.75,0,0,1,188.66,240.71Z" style="fill: rgb(38, 50, 56); transform-origin: 189.725px 228.285px;" id="elo2x41m3ikn" class="animable"></path><path d="M187.81,250.42h0a.74.74,0,0,1-.68-.8l.38-4.3a.74.74,0,0,1,.8-.68h0a.74.74,0,0,1,.67.8l-.37,4.31A.74.74,0,0,1,187.81,250.42Z" style="fill: rgb(38, 50, 56); transform-origin: 188.055px 247.53px;" id="elohyxs1utbc" class="animable"></path><path d="M127.53,254.27l-15.25-1.33a.75.75,0,0,1-.67-.81h0a.74.74,0,0,1,.8-.67l15.25,1.33a.76.76,0,0,1,.68.81h0A.75.75,0,0,1,127.53,254.27Z" style="fill: rgb(38, 50, 56); transform-origin: 119.975px 252.865px;" id="el2j071hw82pa" class="animable"></path><path d="M164.92,257.54l-30.74-2.69a.74.74,0,0,1-.68-.8h0a.74.74,0,0,1,.81-.67l30.74,2.69a.74.74,0,0,1,.68.8h0A.74.74,0,0,1,164.92,257.54Z" style="fill: rgb(38, 50, 56); transform-origin: 149.615px 255.46px;" id="elqki3y7gj0rc" class="animable"></path><path d="M173.53,258.29l-4.18-.36a.74.74,0,0,1-.67-.8h0a.74.74,0,0,1,.8-.68l4.18.37a.74.74,0,0,1,.68.8h0A.74.74,0,0,1,173.53,258.29Z" style="fill: rgb(38, 50, 56); transform-origin: 171.51px 257.371px;" id="elc45gj4sq7q" class="animable"></path><g id="eljxubrrh1xh"><g style="opacity: 0.4; transform-origin: 154.59px 202.39px;" class="animable" id="elt1v3s5h7yko"><path d="M196.49,151.17h0a.74.74,0,0,1-.67-.81l.28-3.19a.74.74,0,0,1,.8-.68h0a.74.74,0,0,1,.67.8l-.28,3.2A.74.74,0,0,1,196.49,151.17Z" style="fill: rgb(255, 255, 255); transform-origin: 196.695px 148.83px;" id="el2vnho9iwclj" class="animable"></path><path d="M191.22,211.37h0a.73.73,0,0,1-.67-.8l4.83-55.22a.73.73,0,0,1,.8-.67h0a.74.74,0,0,1,.68.8L192,210.7A.73.73,0,0,1,191.22,211.37Z" style="fill: rgb(255, 255, 255); transform-origin: 193.705px 183.024px;" id="elp06w2ep0hlp" class="animable"></path><path d="M188.66,240.71h0a.76.76,0,0,1-.68-.81L190,216.53a.73.73,0,0,1,.8-.67h0a.74.74,0,0,1,.67.8l-2,23.37A.75.75,0,0,1,188.66,240.71Z" style="fill: rgb(255, 255, 255); transform-origin: 189.725px 228.285px;" id="el4r8q7omomr2" class="animable"></path><path d="M187.81,250.42h0a.74.74,0,0,1-.68-.8l.38-4.3a.74.74,0,0,1,.8-.68h0a.74.74,0,0,1,.67.8l-.37,4.31A.74.74,0,0,1,187.81,250.42Z" style="fill: rgb(255, 255, 255); transform-origin: 188.055px 247.53px;" id="el1pe99l59he6" class="animable"></path><path d="M127.53,254.27l-15.25-1.33a.75.75,0,0,1-.67-.81h0a.74.74,0,0,1,.8-.67l15.25,1.33a.76.76,0,0,1,.68.81h0A.75.75,0,0,1,127.53,254.27Z" style="fill: rgb(255, 255, 255); transform-origin: 119.975px 252.865px;" id="elljisxzqc1n" class="animable"></path><path d="M164.92,257.54l-30.74-2.69a.74.74,0,0,1-.68-.8h0a.74.74,0,0,1,.81-.67l30.74,2.69a.74.74,0,0,1,.68.8h0A.74.74,0,0,1,164.92,257.54Z" style="fill: rgb(255, 255, 255); transform-origin: 149.615px 255.46px;" id="elfiau2wogl2" class="animable"></path><path d="M173.53,258.29l-4.18-.36a.74.74,0,0,1-.67-.8h0a.74.74,0,0,1,.8-.68l4.18.37a.74.74,0,0,1,.68.8h0A.74.74,0,0,1,173.53,258.29Z" style="fill: rgb(255, 255, 255); transform-origin: 171.51px 257.371px;" id="ellsxtgazuc6d" class="animable"></path></g></g><path d="M111.41,176.32c-3.09.45-12.41-1.09-12.41-1.09l-2.09,24s9.44.1,12.4,1.08a17.94,17.94,0,0,1,2.61,1.58l2.33-26.66A17.6,17.6,0,0,1,111.41,176.32Z" style="fill: rgb(38, 50, 56); transform-origin: 105.58px 188.56px;" id="els2k909wgp" class="animable"></path><path d="M110.16,200.72c.81.48,1.76,1.15,1.76,1.15l2.33-26.66s-1,.5-1.93.83Z" id="elxyyhkflmysg" class="animable" style="transform-origin: 112.205px 188.54px;"></path><path d="M112.17,203.24h0a1.3,1.3,0,0,1-1.18-1.4l2.34-26.75a1.29,1.29,0,0,1,1.41-1.18h0a1.28,1.28,0,0,1,1.17,1.4l-2.34,26.75A1.29,1.29,0,0,1,112.17,203.24Z" style="fill: rgb(38, 50, 56); transform-origin: 113.451px 188.575px;" id="el2vondw0ijge" class="animable"></path><path d="M110.77,182.09l-1.09,12.4-8.49-3.6a.87.87,0,0,0-.9.17,5.22,5.22,0,0,1-3.92,1.3,3.4,3.4,0,0,1-2.5-1.24c-1.13-1.44-.94-3.79-.61-5.9a3.89,3.89,0,0,1,4.25-3.31,5.22,5.22,0,0,1,3.41,1.92.86.86,0,0,0,.86.34Zm-2.06,10.78.82-9.35-7.5,1.73a2,2,0,0,1-2-.72A4.12,4.12,0,0,0,97.36,183a2.78,2.78,0,0,0-3,2.39c-.28,1.76-.49,3.92.38,5a2.35,2.35,0,0,0,1.72.81,4.09,4.09,0,0,0,3.1-1,1.94,1.94,0,0,1,2.06-.37Z" style="fill: rgb(38, 50, 56); transform-origin: 101.888px 188.19px;" id="elyr7jccgwpy" class="animable"></path><g id="el1s4n4k21vjoi"><g style="opacity: 0.5; transform-origin: 101.888px 188.19px;" class="animable" id="elejzi7qhwyxc"><path d="M110.77,182.09l-1.09,12.4-8.49-3.6a.87.87,0,0,0-.9.17,5.22,5.22,0,0,1-3.92,1.3,3.4,3.4,0,0,1-2.5-1.24c-1.13-1.44-.94-3.79-.61-5.9a3.89,3.89,0,0,1,4.25-3.31,5.22,5.22,0,0,1,3.41,1.92.86.86,0,0,0,.86.34Zm-2.06,10.78.82-9.35-7.5,1.73a2,2,0,0,1-2-.72A4.12,4.12,0,0,0,97.36,183a2.78,2.78,0,0,0-3,2.39c-.28,1.76-.49,3.92.38,5a2.35,2.35,0,0,0,1.72.81,4.09,4.09,0,0,0,3.1-1,1.94,1.94,0,0,1,2.06-.37Z" style="fill: rgb(255, 255, 255); transform-origin: 101.888px 188.19px;" id="el8deb4065ohh" class="animable"></path></g></g><path d="M135.08,142.57l-2-.17.1-1.17,5.4.47-.1,1.17-2-.18-.44,5-1.44-.12Z" style="fill: rgb(38, 50, 56); transform-origin: 135.83px 144.46px;" id="ellny9ev2vnei" class="animable"></path><path d="M145.06,142.26l-.54,6.2-1.44-.12.22-2.54-2.81-.25-.22,2.54-1.44-.12.54-6.2,1.44.12-.22,2.45,2.82.24.21-2.44Z" style="fill: rgb(38, 50, 56); transform-origin: 141.945px 145.115px;" id="elhpvssbrgqhe" class="animable"></path><path d="M150.89,147.86l-.1,1.15-4.8-.42.54-6.2,4.68.41-.1,1.15-3.26-.28-.11,1.34,2.87.26-.09,1.11-2.88-.25-.13,1.43Z" style="fill: rgb(38, 50, 56); transform-origin: 148.6px 145.7px;" id="elzv1pky8izi" class="animable"></path><path d="M152.55,149.07a3.52,3.52,0,0,1-1.06-.61l.59-1a3.18,3.18,0,0,0,.9.55,3.92,3.92,0,0,0,1.08.28,1.74,1.74,0,0,0,.92-.11.54.54,0,0,0,.34-.45.51.51,0,0,0-.14-.39,1.45,1.45,0,0,0-.42-.27c-.18-.08-.42-.16-.72-.26a9.28,9.28,0,0,1-1.13-.44,2,2,0,0,1-.73-.6,1.49,1.49,0,0,1-.23-1,1.72,1.72,0,0,1,.37-.95,2.1,2.1,0,0,1,1-.62,3.7,3.7,0,0,1,1.46-.13,5,5,0,0,1,1.15.25,3.27,3.27,0,0,1,1,.49l-.54,1a3.5,3.5,0,0,0-1.67-.64,1.71,1.71,0,0,0-.91.12.61.61,0,0,0-.33.49.5.5,0,0,0,.29.5,5.2,5.2,0,0,0,1,.4,11.55,11.55,0,0,1,1.13.43,2,2,0,0,1,.73.6,1.43,1.43,0,0,1,.23,1,1.66,1.66,0,0,1-.38,1,2.05,2.05,0,0,1-1,.62,3.77,3.77,0,0,1-1.47.13A5.11,5.11,0,0,1,152.55,149.07Z" style="fill: rgb(38, 50, 56); transform-origin: 154.21px 146.265px;" id="el8l9z8545g5y" class="animable"></path><path d="M158.12,143.41l1.43.12-.54,6.2-1.43-.12Z" style="fill: rgb(38, 50, 56); transform-origin: 158.565px 146.57px;" id="elbvjkgx7cubj" class="animable"></path><path d="M161.11,149.82a3.4,3.4,0,0,1-1.06-.61l.58-1a3.24,3.24,0,0,0,.91.55,3.43,3.43,0,0,0,1.08.27,1.67,1.67,0,0,0,.92-.1.54.54,0,0,0,.33-.46.44.44,0,0,0-.14-.38,1.17,1.17,0,0,0-.42-.27,7.24,7.24,0,0,0-.71-.26,8.67,8.67,0,0,1-1.13-.44,1.8,1.8,0,0,1-.73-.61,1.45,1.45,0,0,1-.24-1,1.73,1.73,0,0,1,.38-.95,2,2,0,0,1,.94-.62,3.74,3.74,0,0,1,1.46-.13,5.46,5.46,0,0,1,1.15.24,3.62,3.62,0,0,1,1,.5l-.54,1a3.43,3.43,0,0,0-1.68-.64,1.66,1.66,0,0,0-.9.12.58.58,0,0,0-.34.49.5.5,0,0,0,.29.5,6,6,0,0,0,1,.39,11.28,11.28,0,0,1,1.13.44,1.93,1.93,0,0,1,.73.6,1.48,1.48,0,0,1,.24,1,1.73,1.73,0,0,1-.38,1,2,2,0,0,1-1,.61,3.61,3.61,0,0,1-1.47.13A5,5,0,0,1,161.11,149.82Z" style="fill: rgb(38, 50, 56); transform-origin: 162.74px 147.001px;" id="el9cdnxgalam" class="animable"></path><path d="M171.7,159.55l-47.11-4.12a1.11,1.11,0,0,1-1-1.2h0a1.12,1.12,0,0,1,1.21-1l47.1,4.12a1.1,1.1,0,0,1,1,1.2h0A1.1,1.1,0,0,1,171.7,159.55Z" style="fill: rgb(38, 50, 56); transform-origin: 148.245px 156.39px;" id="elpu9tbync0vl" class="animable"></path><path d="M164.9,165.87l-34.71-3a1.11,1.11,0,0,1-1-1.2h0a1.12,1.12,0,0,1,1.21-1l34.7,3a1.1,1.1,0,0,1,1,1.2h0A1.11,1.11,0,0,1,164.9,165.87Z" style="fill: rgb(38, 50, 56); transform-origin: 147.645px 163.27px;" id="el0tl71dzbbk1f" class="animable"></path><path d="M172.6,231.18a.73.73,0,0,1-.8.67l-59.86-5.23a.74.74,0,0,1-.67-.81h0a.73.73,0,0,1,.8-.67l59.86,5.24a.73.73,0,0,1,.67.8Z" style="fill: rgb(38, 50, 56); transform-origin: 141.935px 228.495px;" id="elyaesfaha97h" class="animable"></path><path d="M165.8,237.5a.73.73,0,0,1-.8.67L117.54,234a.74.74,0,0,1-.67-.8h0a.74.74,0,0,1,.8-.68l47.46,4.15a.74.74,0,0,1,.67.81Z" style="fill: rgb(38, 50, 56); transform-origin: 141.335px 235.345px;" id="elfk6echohrl" class="animable"></path><g id="el0rxjy5d9cn2"><circle cx="144.77" cy="196.06" r="13.39" style="fill: #0D4D9C; transform-origin: 144.77px 196.06px; transform: rotate(-40deg);" class="animable" id="el860uwbm70s2"></circle></g><path d="M150.58,200.47c-.08.95-2.9,1.48-6.3,1.18s-6.08-1.31-6-2.26l.37-4.15,12.3,1.07Z" style="fill: rgb(38, 50, 56); transform-origin: 144.614px 198.487px;" id="elhewz6zqb3nj" class="animable"></path><g id="el4i5qpg2to1"><path d="M138.55,196.4c.47.86,3,1.7,6,2s5.66-.13,6.28-.9l.1-1.16-12.3-1.07Z" style="opacity: 0.6; transform-origin: 144.74px 196.883px;" class="animable" id="el6hl3qa2wae"></path></g><path d="M144.54,198l-9.9-4a.23.23,0,0,1,0-.44l10.51-3a.18.18,0,0,1,.16,0l9.83,4.79a.24.24,0,0,1,0,.44L144.68,198A.32.32,0,0,1,144.54,198Z" style="fill: rgb(38, 50, 56); transform-origin: 144.881px 194.274px;" id="el1vo46kmmi3t" class="animable"></path></g><g id="freepik--Device--inject-2" class="animable" style="transform-origin: 286.219px 223.639px;"><path d="M316.76,290.51l-14-31.09H269.94l5,29.09a2.63,2.63,0,0,1-2.14,3l-.42,0H258a1.39,1.39,0,0,0-1.39,1.39h0v1.54a1.39,1.39,0,0,0,1.39,1.39h57.73a1.51,1.51,0,0,0,1.51-1.51v-1.6A5.49,5.49,0,0,0,316.76,290.51Zm-15.18-3.84H285.83a2.1,2.1,0,0,1-2.07-1.75l-2.38-13.73a2.1,2.1,0,0,1,1.72-2.43l.36,0h11.91a2.1,2.1,0,0,1,1.92,1.23l6.21,13.73a2.13,2.13,0,0,1-1.92,3Z" style="fill: rgb(38, 50, 56); transform-origin: 286.925px 277.625px;" id="el4gnd9jo2wlh" class="animable"></path><g id="elsp5trxyx6dh"><path d="M316.76,290.51l-14-31.09H269.94l5,29.09a2.63,2.63,0,0,1-2.14,3l-.42,0H258a1.39,1.39,0,0,0-1.39,1.39h0v1.54a1.39,1.39,0,0,0,1.39,1.39h57.73a1.51,1.51,0,0,0,1.51-1.51v-1.6A5.49,5.49,0,0,0,316.76,290.51Zm-15.18-3.84H285.83a2.1,2.1,0,0,1-2.07-1.75l-2.38-13.73a2.1,2.1,0,0,1,1.72-2.43l.36,0h11.91a2.1,2.1,0,0,1,1.92,1.23l6.21,13.73a2.13,2.13,0,0,1-1.92,3Z" style="fill: rgb(255, 255, 255); opacity: 0.5; transform-origin: 286.925px 277.625px;" class="animable" id="elzbc7xty91qs"></path></g><g id="el2439zvwad95"><path d="M301.58,286.67H285.83a2.1,2.1,0,0,1-2.07-1.75l-2.38-13.73a2.1,2.1,0,0,1,1.72-2.43l.36,0h11.91a2.1,2.1,0,0,1,1.92,1.23l6.21,13.73a2.13,2.13,0,0,1-1.92,3Z" style="fill: rgb(255, 255, 255); isolation: isolate; opacity: 0.2; transform-origin: 292.517px 277.74px;" class="animable" id="elcudd67gjttk"></path></g><path d="M285.31,268.7h-1.85a2.1,2.1,0,0,0-2.11,2.1,2.19,2.19,0,0,0,0,.36l2.38,13.73a2.08,2.08,0,0,0,2.07,1.74h1.86a2.08,2.08,0,0,1-2.07-1.74l-2.38-13.73a2.09,2.09,0,0,1,1.72-2.43A2.07,2.07,0,0,1,285.31,268.7Z" style="fill: rgb(38, 50, 56); transform-origin: 284.501px 277.665px;" id="el544wxs0v9fb" class="animable"></path><path d="M318.62,290.51l-14-31.07h-1.85l14,31.07a5.58,5.58,0,0,1,.5,2.31v1.61a1.52,1.52,0,0,1-1.51,1.51h1.86a1.52,1.52,0,0,0,1.51-1.51v-1.61A5.58,5.58,0,0,0,318.62,290.51Z" style="fill: rgb(38, 50, 56); transform-origin: 310.95px 277.69px;" id="el6b4nt2i773h" class="animable"></path><g id="el36tr9ogeft3"><polygon points="302.72 259.42 269.93 259.42 271.22 266.84 306.08 266.84 302.72 259.42" style="isolation: isolate; opacity: 0.2; transform-origin: 288.005px 263.13px;" class="animable" id="el4cogkkv801c"></polygon></g><path d="M349.76,262.68H209.87a4.62,4.62,0,0,1-4.69-4.52,4.16,4.16,0,0,1,0-.61l8.84-101.09a5.68,5.68,0,0,1,5.56-5.12H359.5a4.59,4.59,0,0,1,4.69,4.52,4,4,0,0,1,0,.6l-8.85,101.1A5.69,5.69,0,0,1,349.76,262.68Z" style="fill: rgb(38, 50, 56); transform-origin: 284.685px 207.01px;" id="elsfu1r7qtles" class="animable"></path><path d="M206.16,246.63l-1,10.93a4.59,4.59,0,0,0,4.06,5.09,3,3,0,0,0,.6,0h139.9a5.68,5.68,0,0,0,5.56-5.12l1-10.93Z" style="fill: #0D4D9C; transform-origin: 280.705px 254.633px;" id="elwrha4c16ijh" class="animable"></path><g id="elqgwfemltj9i"><path d="M206.16,246.63l-1,10.93a4.59,4.59,0,0,0,4.06,5.09,3,3,0,0,0,.6,0h139.9a5.68,5.68,0,0,0,5.56-5.12l1-10.93Z" style="fill: rgb(255, 255, 255); isolation: isolate; opacity: 0.7; transform-origin: 280.705px 254.633px;" class="animable" id="el2bwmpql44js"></path></g><path d="M351.34,243.54H211.63a2.49,2.49,0,0,1-2.54-2.45,1.69,1.69,0,0,1,0-.32l7.31-83.55a3.08,3.08,0,0,1,3-2.77H359.14a2.49,2.49,0,0,1,2.54,2.45c0,.1,0,.21,0,.32l-7.31,83.55A3.09,3.09,0,0,1,351.34,243.54Z" style="fill: #0D4D9C; transform-origin: 285.381px 198.995px;" id="eliinwg72eey" class="animable"></path><g id="elp1bie8bap"><path d="M351.34,243.54H211.63a2.49,2.49,0,0,1-2.54-2.45,1.69,1.69,0,0,1,0-.32l7.31-83.55a3.08,3.08,0,0,1,3-2.77H359.14a2.49,2.49,0,0,1,2.54,2.45c0,.1,0,.21,0,.32l-7.31,83.55A3.09,3.09,0,0,1,351.34,243.54Z" style="fill: #0D4D9C; isolation: isolate; opacity: 0.8; transform-origin: 285.381px 198.995px;" class="animable" id="elcw0lbzmywg9"></path></g><path d="M362.6,151.36h-3.1a4.59,4.59,0,0,1,4.69,4.52,4,4,0,0,1,0,.6l-8.85,101.08a5.68,5.68,0,0,1-5.56,5.12h3.1a5.67,5.67,0,0,0,5.55-5.12l8.85-101.09a4.6,4.6,0,0,0-4.07-5.08Z" style="fill: #0D4D9C; transform-origin: 358.544px 207.019px;" id="elmtmux7uqh5" class="animable"></path><g id="elww4m9olk7t"><path d="M362.6,151.36h-3.1a4.59,4.59,0,0,1,4.69,4.52,4,4,0,0,1,0,.6l-8.85,101.08a5.68,5.68,0,0,1-5.56,5.12h3.1a5.67,5.67,0,0,0,5.55-5.12l8.85-101.09a4.6,4.6,0,0,0-4.07-5.08Z" style="fill: rgb(255, 255, 255); isolation: isolate; opacity: 0.2; transform-origin: 358.544px 207.019px;" class="animable" id="elisos3gcibf"></path></g><polygon points="246.22 242.92 310.32 242.92 317.68 158.77 253.59 158.77 246.22 242.92" style="fill: #0D4D9C; transform-origin: 281.95px 200.845px;" id="elww20alzp4fr" class="animable"></polygon><g id="el0vvgzvbeaml"><polygon points="246.22 242.92 310.32 242.92 317.68 158.77 253.59 158.77 246.22 242.92" style="fill: rgb(255, 255, 255); opacity: 0.7; transform-origin: 281.95px 200.845px;" class="animable" id="elfuumrk2u7ft"></polygon></g><path d="M269.36,169.62h32.29a.85.85,0,0,0,.83-.76h0a.69.69,0,0,0-.69-.75h-32.3a.85.85,0,0,0-.83.75h0A.69.69,0,0,0,269.36,169.62Z" style="fill: rgb(38, 50, 56); transform-origin: 285.57px 168.865px;" id="ele8m5m2jifaj" class="animable"></path><path d="M258.5,210.79h39.55a.85.85,0,0,0,.83-.76h0a.69.69,0,0,0-.7-.75H258.63a.83.83,0,0,0-.82.75h0A.68.68,0,0,0,258.5,210.79Z" style="fill: rgb(38, 50, 56); transform-origin: 278.344px 210.035px;" id="el7pf0z4t1zt" class="animable"></path><path d="M258.11,215.19h45.17a.83.83,0,0,0,.82-.76h0a.68.68,0,0,0-.69-.75H258.25a.85.85,0,0,0-.83.75h0A.69.69,0,0,0,258.11,215.19Z" style="fill: rgb(38, 50, 56); transform-origin: 280.76px 214.435px;" id="elprrkiqgmzm" class="animable"></path><path d="M257.73,219.59H302.9a.85.85,0,0,0,.82-.76h0a.68.68,0,0,0-.69-.76H257.86a.84.84,0,0,0-.82.76h0A.68.68,0,0,0,257.73,219.59Z" style="fill: rgb(38, 50, 56); transform-origin: 280.38px 218.83px;" id="el7vy4edwn6py" class="animable"></path><path d="M257.34,224h45.17a.83.83,0,0,0,.82-.76h0a.68.68,0,0,0-.69-.76H257.48a.85.85,0,0,0-.83.76h0A.69.69,0,0,0,257.34,224Z" style="fill: rgb(38, 50, 56); transform-origin: 279.991px 223.24px;" id="el8m7xzwr0ywq" class="animable"></path><path d="M257,228.39h39.55a.85.85,0,0,0,.83-.76h0a.69.69,0,0,0-.69-.76H257.09a.84.84,0,0,0-.82.76h0A.68.68,0,0,0,257,228.39Z" style="fill: rgb(38, 50, 56); transform-origin: 276.824px 227.631px;" id="elco6m3a4bcl4" class="animable"></path><path d="M256.57,232.78h45.17a.84.84,0,0,0,.83-.75h0a.69.69,0,0,0-.7-.76H256.71a.85.85,0,0,0-.83.76h0A.68.68,0,0,0,256.57,232.78Z" style="fill: rgb(38, 50, 56); transform-origin: 279.225px 232.025px;" id="elbymmau1owuv" class="animable"></path><path d="M256.19,237.18h45.17a.84.84,0,0,0,.82-.75h0a.68.68,0,0,0-.69-.76H256.32a.84.84,0,0,0-.82.76h0A.68.68,0,0,0,256.19,237.18Z" style="fill: rgb(38, 50, 56); transform-origin: 278.841px 236.425px;" id="elz75ufsu75xi" class="animable"></path><path d="M272.7,174.65h24.73a.83.83,0,0,0,.82-.76h0a.68.68,0,0,0-.69-.76H272.83a.85.85,0,0,0-.82.76h0A.68.68,0,0,0,272.7,174.65Z" style="fill: rgb(38, 50, 56); transform-origin: 285.13px 173.89px;" id="el3zlgu71i1s5" class="animable"></path><path d="M276.3,179.67H293a.85.85,0,0,0,.83-.75h0a.69.69,0,0,0-.7-.76H276.43a.83.83,0,0,0-.82.76h0A.68.68,0,0,0,276.3,179.67Z" style="fill: rgb(38, 50, 56); transform-origin: 284.72px 178.915px;" id="elelhxfq55bi" class="animable"></path><g id="elj3z4fi9npxl"><g style="opacity: 0.4; transform-origin: 279.8px 202.645px;" class="animable" id="elt6hd5z2gogb"><path d="M269.36,169.62h32.29a.85.85,0,0,0,.83-.76h0a.69.69,0,0,0-.69-.75h-32.3a.85.85,0,0,0-.83.75h0A.69.69,0,0,0,269.36,169.62Z" style="fill: rgb(255, 255, 255); transform-origin: 285.57px 168.865px;" id="elk13mc7uhunr" class="animable"></path><path d="M258.5,210.79h39.55a.85.85,0,0,0,.83-.76h0a.69.69,0,0,0-.7-.75H258.63a.83.83,0,0,0-.82.75h0A.68.68,0,0,0,258.5,210.79Z" style="fill: rgb(255, 255, 255); transform-origin: 278.344px 210.035px;" id="elsfdrnrgvgu" class="animable"></path><path d="M258.11,215.19h45.17a.83.83,0,0,0,.82-.76h0a.68.68,0,0,0-.69-.75H258.25a.85.85,0,0,0-.83.75h0A.69.69,0,0,0,258.11,215.19Z" style="fill: rgb(255, 255, 255); transform-origin: 280.76px 214.435px;" id="elbwzlh7wmt1a" class="animable"></path><path d="M257.73,219.59H302.9a.85.85,0,0,0,.82-.76h0a.68.68,0,0,0-.69-.76H257.86a.84.84,0,0,0-.82.76h0A.68.68,0,0,0,257.73,219.59Z" style="fill: rgb(255, 255, 255); transform-origin: 280.38px 218.83px;" id="elysqzvf28e1" class="animable"></path><path d="M257.34,224h45.17a.83.83,0,0,0,.82-.76h0a.68.68,0,0,0-.69-.76H257.48a.85.85,0,0,0-.83.76h0A.69.69,0,0,0,257.34,224Z" style="fill: rgb(255, 255, 255); transform-origin: 279.991px 223.24px;" id="elb0zs9u9nh9" class="animable"></path><path d="M257,228.39h39.55a.85.85,0,0,0,.83-.76h0a.69.69,0,0,0-.69-.76H257.09a.84.84,0,0,0-.82.76h0A.68.68,0,0,0,257,228.39Z" style="fill: rgb(255, 255, 255); transform-origin: 276.824px 227.631px;" id="el8ow5va63v0e" class="animable"></path><path d="M256.57,232.78h45.17a.84.84,0,0,0,.83-.75h0a.69.69,0,0,0-.7-.76H256.71a.85.85,0,0,0-.83.76h0A.68.68,0,0,0,256.57,232.78Z" style="fill: rgb(255, 255, 255); transform-origin: 279.225px 232.025px;" id="eluupmw3368ks" class="animable"></path><path d="M256.19,237.18h45.17a.84.84,0,0,0,.82-.75h0a.68.68,0,0,0-.69-.76H256.32a.84.84,0,0,0-.82.76h0A.68.68,0,0,0,256.19,237.18Z" style="fill: rgb(255, 255, 255); transform-origin: 278.841px 236.425px;" id="elakql9snnbqm" class="animable"></path><path d="M272.7,174.65h24.73a.83.83,0,0,0,.82-.76h0a.68.68,0,0,0-.69-.76H272.83a.85.85,0,0,0-.82.76h0A.68.68,0,0,0,272.7,174.65Z" style="fill: rgb(255, 255, 255); transform-origin: 285.13px 173.89px;" id="eltdpdq7ks3a" class="animable"></path><path d="M276.3,179.67H293a.85.85,0,0,0,.83-.75h0a.69.69,0,0,0-.7-.76H276.43a.83.83,0,0,0-.82.76h0A.68.68,0,0,0,276.3,179.67Z" style="fill: rgb(255, 255, 255); transform-origin: 284.72px 178.915px;" id="elhni7ils56iw" class="animable"></path></g></g><g id="ely0usvmmoo8"><polygon points="258.39 203.43 305.07 203.43 306.63 185.52 259.95 185.52 258.39 203.43" style="fill: rgb(255, 255, 255); opacity: 0.5; transform-origin: 282.51px 194.475px;" class="animable" id="el437eaueo9dv"></polygon></g></g><g id="freepik--graduation-cap--inject-2" class="animable" style="transform-origin: 204.24px 294.65px;"><g id="elwsvb6u4o3d"><rect x="207.18" y="257.16" width="40.94" height="38.61" style="fill: rgb(38, 50, 56); transform-origin: 227.65px 276.465px; transform: rotate(180deg);" class="animable" id="el481oes9pkkc"></rect></g><g id="elww7yzyafvc9"><rect x="167.25" y="257.16" width="40.94" height="38.61" style="fill: rgb(38, 50, 56); transform-origin: 187.72px 276.465px; transform: rotate(180deg);" class="animable" id="elj9gdyadpx5b"></rect></g><g id="el7cpidfy6rgp"><rect x="206.78" y="255.73" width="41.34" height="5.36" style="fill: rgb(38, 50, 56); transform-origin: 227.45px 258.41px; transform: rotate(180deg);" class="animable" id="el4iikwaxuv04"></rect></g><g id="eltgw154b2uoh"><rect x="206.78" y="251.8" width="73.93" height="6.23" style="fill: rgb(38, 50, 56); transform-origin: 243.745px 254.915px; transform: rotate(180deg);" class="animable" id="el1r2ipwukkyv"></rect></g><g id="elstrys2z8lvl"><rect x="167.25" y="257.16" width="40.94" height="38.61" style="opacity: 0.2; transform-origin: 187.72px 276.465px; transform: rotate(180deg);" class="animable" id="elr1msddjz3fh"></rect></g><g id="elo5d0polo41m"><rect x="206.78" y="255.73" width="41.34" height="5.36" style="opacity: 0.2; transform-origin: 227.45px 258.41px; transform: rotate(180deg);" class="animable" id="elqdnffaunvhb"></rect></g><g id="elzfkpo0m1ojf"><rect x="206.78" y="251.8" width="73.93" height="6.23" style="opacity: 0.2; transform-origin: 243.745px 254.915px; transform: rotate(180deg);" class="animable" id="el1iznvb6vg5y"></rect></g><g id="elh3npk3m4wmr"><rect x="134.66" y="251.8" width="73.93" height="6.23" style="fill: rgb(38, 50, 56); transform-origin: 171.625px 254.915px; transform: rotate(180deg);" class="animable" id="eli3kaujptda"></rect></g><path d="M134.66,317.6h0a1,1,0,0,0,1-1V256a3.23,3.23,0,0,1,3.23-3.24h68.7a1,1,0,0,0,1-1h0a1,1,0,0,0-1-1h-68.7a5.24,5.24,0,0,0-5.23,5.24V316.6A1,1,0,0,0,134.66,317.6Z" style="fill: #0D4D9C; transform-origin: 171.125px 284.18px;" id="el9ns2wy7vi39" class="animable"></path><path d="M134.44,320.2c3.68,0,6.66,4.8,6.66,10.72v7.62h-3.3c-.36,0-2.38-.4-2.38-7.69,0,0-1.12,7.67.74,7.69h-2.81s-1.68-.32-1.68-4.38V328s-2.69,10.5,0,10.5h-3.9v-7.62C127.77,325,130.76,320.2,134.44,320.2Z" style="fill: #0D4D9C; transform-origin: 134.435px 329.37px;" id="elej34vr0ur48" class="animable"></path><path d="M132.2,318.6h4.48a1,1,0,0,0,1-1h0a1,1,0,0,0-1-1H132.2a1,1,0,0,0-1,1h0A1,1,0,0,0,132.2,318.6Z" style="fill: #0D4D9C; transform-origin: 134.44px 317.6px;" id="elzjfrkckq6n" class="animable"></path><path d="M132.2,320.6h4.48a1,1,0,0,0,1-1h0a1,1,0,0,0-1-1H132.2a1,1,0,0,0-1,1h0A1,1,0,0,0,132.2,320.6Z" style="fill: #0D4D9C; transform-origin: 134.44px 319.6px;" id="elcecge0u209k" class="animable"></path></g><g id="freepik--Books--inject-2" class="animable" style="transform-origin: 239px 355.41px;"><path d="M344.5,374.88H162.28v38H344.56A149.17,149.17,0,0,1,344.5,374.88Z" style="fill: #0D4D9C; transform-origin: 253.42px 393.88px;" id="el2ndiyeqz9eg" class="animable"></path><g id="eln6s5lzhxwnm"><path d="M344.5,374.88H162.28v38H344.56A149.17,149.17,0,0,1,344.5,374.88Z" style="fill: rgb(255, 255, 255); opacity: 0.7; transform-origin: 253.42px 393.88px;" class="animable" id="el3ipabibhuau"></path></g><path d="M195.48,414.88H138.21l-.58-.59a29.2,29.2,0,0,1,0-41.31l.58-.58h57.27l-3.41,3.41a25.22,25.22,0,0,0,0,35.65Z" style="fill: #0D4D9C; transform-origin: 162.275px 393.64px;" id="el01gfo6f5yoyu" class="animable"></path><g id="el5fki65vt1q7"><g style="opacity: 0.3; transform-origin: 162.275px 393.64px;" class="animable" id="el08ig5tn098kc"><path d="M195.48,414.88H138.21l-.58-.59a29.2,29.2,0,0,1,0-41.31l.58-.58h57.27l-3.41,3.41a25.22,25.22,0,0,0,0,35.65Z" id="el6rwqchhacg" class="animable" style="transform-origin: 162.275px 393.64px;"></path></g></g><path d="M346.37,414.88H191.69l-.17-.17a30.06,30.06,0,0,1-9-20A29.08,29.08,0,0,1,191.1,373l.59-.58H346.37a2,2,0,0,1,2,2h0a2,2,0,0,1-2,2h-153a25.23,25.23,0,0,0,0,34.48h153a2,2,0,0,1,2,2h0A2,2,0,0,1,346.37,414.88Z" style="fill: #0D4D9C; transform-origin: 265.435px 393.65px;" id="ellze4b4f281s" class="animable"></path><path d="M330.2,389h-8.75a1.5,1.5,0,0,1-1.5-1.5h0a1.5,1.5,0,0,1,1.5-1.5h8.75a1.5,1.5,0,0,1,1.5,1.5h0A1.5,1.5,0,0,1,330.2,389Z" style="fill: rgb(255, 255, 255); transform-origin: 325.825px 387.5px;" id="eln3hnmb21ooh" class="animable"></path><path d="M310,389H228.7a1.5,1.5,0,0,1-1.5-1.5h0a1.5,1.5,0,0,1,1.5-1.5H310a1.5,1.5,0,0,1,1.5,1.5h0A1.5,1.5,0,0,1,310,389Z" style="fill: rgb(255, 255, 255); transform-origin: 269.35px 387.5px;" id="elf4sdzy2rmau" class="animable"></path><path d="M217.7,389h-18a1.5,1.5,0,0,1-1.5-1.5h0a1.5,1.5,0,0,1,1.5-1.5h18a1.5,1.5,0,0,1,1.5,1.5h0A1.5,1.5,0,0,1,217.7,389Z" style="fill: rgb(255, 255, 255); transform-origin: 208.7px 387.5px;" id="eloc47x7kw0dm" class="animable"></path><path d="M330.2,401.71h-77a1.5,1.5,0,0,1-1.5-1.5h0a1.5,1.5,0,0,1,1.5-1.5h77a1.5,1.5,0,0,1,1.5,1.5h0A1.5,1.5,0,0,1,330.2,401.71Z" style="fill: rgb(255, 255, 255); transform-origin: 291.7px 400.21px;" id="elsgt47a520ys" class="animable"></path><path d="M242,401.71H199.7a1.5,1.5,0,0,1-1.5-1.5h0a1.5,1.5,0,0,1,1.5-1.5H242a1.5,1.5,0,0,1,1.5,1.5h0A1.5,1.5,0,0,1,242,401.71Z" style="fill: rgb(255, 255, 255); transform-origin: 220.85px 400.21px;" id="elof3lri6wu6" class="animable"></path><path d="M339.67,298.17h-164v34.2H339.73A134.07,134.07,0,0,1,339.67,298.17Z" style="fill: #0D4D9C; transform-origin: 257.7px 315.27px;" id="el7akgvb1fqbf" class="animable"></path><g id="elprzxihacnvt"><path d="M339.67,298.17h-164v34.2H339.73A134.07,134.07,0,0,1,339.67,298.17Z" style="fill: rgb(255, 255, 255); opacity: 0.8; transform-origin: 257.7px 315.27px;" class="animable" id="el4n97xeqiemn"></path></g><path d="M205.55,334.17H154l-.53-.53a26.28,26.28,0,0,1,0-37.17l.53-.53h51.54L202.48,299a22.71,22.71,0,0,0,0,32.09Z" style="fill: #0D4D9C; transform-origin: 175.66px 315.055px;" id="elycb0145aw8" class="animable"></path><g id="elqdqa1i1uxl"><g style="opacity: 0.2; transform-origin: 175.66px 315.055px;" class="animable" id="elcxo8zg5zan4"><path d="M205.55,334.17H154l-.53-.53a26.28,26.28,0,0,1,0-37.17l.53-.53h51.54L202.48,299a22.71,22.71,0,0,0,0,32.09Z" style="fill: rgb(255, 255, 255); transform-origin: 175.66px 315.055px;" id="elzqyfip9h38j" class="animable"></path></g></g><path d="M341.35,334.17H202.14L202,334a27,27,0,0,1-8.06-18,26.1,26.1,0,0,1,7.68-19.53l.53-.53H341.35a1.8,1.8,0,0,1,1.8,1.8h0a1.8,1.8,0,0,1-1.8,1.8H203.64a22.7,22.7,0,0,0,0,31H341.35a1.8,1.8,0,0,1,1.8,1.8h0A1.8,1.8,0,0,1,341.35,334.17Z" style="fill: #0D4D9C; transform-origin: 268.535px 315.055px;" id="elftkt0cotkj" class="animable"></path><g id="el943fci5wxfw"><g style="opacity: 0.4; transform-origin: 268.535px 315.055px;" class="animable" id="elg3ure9puxnw"><path d="M341.35,334.17H202.14L202,334a27,27,0,0,1-8.06-18,26.1,26.1,0,0,1,7.68-19.53l.53-.53H341.35a1.8,1.8,0,0,1,1.8,1.8h0a1.8,1.8,0,0,1-1.8,1.8H203.64a22.7,22.7,0,0,0,0,31H341.35a1.8,1.8,0,0,1,1.8,1.8h0A1.8,1.8,0,0,1,341.35,334.17Z" style="fill: rgb(255, 255, 255); transform-origin: 268.535px 315.055px;" id="elflbfyuuk1k9" class="animable"></path></g></g><path d="M326.8,310.92h-7.88a1.35,1.35,0,0,1-1.35-1.35h0a1.35,1.35,0,0,1,1.35-1.35h7.88a1.35,1.35,0,0,1,1.35,1.35h0A1.35,1.35,0,0,1,326.8,310.92Z" style="fill: rgb(255, 255, 255); transform-origin: 322.86px 309.57px;" id="elhh9eo8v9a7n" class="animable"></path><path d="M308.57,310.92H235.45a1.34,1.34,0,0,1-1.35-1.35h0a1.34,1.34,0,0,1,1.35-1.35h73.12a1.34,1.34,0,0,1,1.35,1.35h0A1.34,1.34,0,0,1,308.57,310.92Z" style="fill: rgb(255, 255, 255); transform-origin: 272.01px 309.57px;" id="ellc2uts912f" class="animable"></path><path d="M225.55,310.92h-16.2a1.34,1.34,0,0,1-1.35-1.35h0a1.34,1.34,0,0,1,1.35-1.35h16.2a1.34,1.34,0,0,1,1.35,1.35h0A1.34,1.34,0,0,1,225.55,310.92Z" style="fill: rgb(255, 255, 255); transform-origin: 217.45px 309.57px;" id="el1anm6biuzcq" class="animable"></path><path d="M326.8,322.32H257.5a1.34,1.34,0,0,1-1.35-1.35h0a1.34,1.34,0,0,1,1.35-1.35h69.3a1.35,1.35,0,0,1,1.35,1.35h0A1.35,1.35,0,0,1,326.8,322.32Z" style="fill: rgb(255, 255, 255); transform-origin: 292.15px 320.97px;" id="eld9a7ly4xd26" class="animable"></path><path d="M247.37,322.32h-38A1.34,1.34,0,0,1,208,321h0a1.34,1.34,0,0,1,1.35-1.35h38a1.34,1.34,0,0,1,1.35,1.35h0A1.34,1.34,0,0,1,247.37,322.32Z" style="fill: rgb(255, 255, 255); transform-origin: 228.35px 320.985px;" id="elosuia4969k" class="animable"></path><path d="M345.44,336.4h-164v34.2H345.5A134.07,134.07,0,0,1,345.44,336.4Z" style="fill: #0D4D9C; transform-origin: 263.47px 353.5px;" id="el6333ec9gib3" class="animable"></path><g id="el46wohp0yive"><path d="M345.44,336.4h-164v34.2H345.5A134.07,134.07,0,0,1,345.44,336.4Z" style="fill: rgb(255, 255, 255); opacity: 0.7; transform-origin: 263.47px 353.5px;" class="animable" id="eld4qu46jj79b"></path></g><path d="M211.33,372.4H159.78l-.52-.53a26.28,26.28,0,0,1,0-37.17l.52-.53h51.55l-3.07,3.07a22.68,22.68,0,0,0,0,32.09Z" style="fill: #0D4D9C; transform-origin: 181.445px 353.285px;" id="el5gsfgrrrnb" class="animable"></path><path d="M347.13,372.4H207.91l-.15-.15a27,27,0,0,1-8.06-18,26.16,26.16,0,0,1,7.68-19.53l.53-.53H347.13a1.81,1.81,0,0,1,1.8,1.8h0a1.81,1.81,0,0,1-1.8,1.8H209.42a22.67,22.67,0,0,0,0,31H347.13a1.8,1.8,0,0,1,1.8,1.8h0A1.81,1.81,0,0,1,347.13,372.4Z" style="fill: #0D4D9C; transform-origin: 274.306px 353.295px;" id="elk5snno5sh0g" class="animable"></path><g id="elk60d25owx0o"><g style="opacity: 0.3; transform-origin: 274.306px 353.295px;" class="animable" id="elopzvmsyyqs"><path d="M347.13,372.4H207.91l-.15-.15a27,27,0,0,1-8.06-18,26.16,26.16,0,0,1,7.68-19.53l.53-.53H347.13a1.81,1.81,0,0,1,1.8,1.8h0a1.81,1.81,0,0,1-1.8,1.8H209.42a22.67,22.67,0,0,0,0,31H347.13a1.8,1.8,0,0,1,1.8,1.8h0A1.81,1.81,0,0,1,347.13,372.4Z" style="fill: rgb(255, 255, 255); transform-origin: 274.306px 353.295px;" id="elz9cbtv8xq3e" class="animable"></path></g></g><path d="M215.12,357.85H223a1.35,1.35,0,0,1,1.35,1.35h0a1.36,1.36,0,0,1-1.35,1.35h-7.88a1.36,1.36,0,0,1-1.35-1.35h0A1.35,1.35,0,0,1,215.12,357.85Z" style="fill: rgb(255, 255, 255); transform-origin: 219.06px 359.2px;" id="el0vt3l2qk48s" class="animable"></path><path d="M233.35,357.85h73.12a1.34,1.34,0,0,1,1.35,1.35h0a1.35,1.35,0,0,1-1.35,1.35H233.35A1.35,1.35,0,0,1,232,359.2h0A1.34,1.34,0,0,1,233.35,357.85Z" style="fill: rgb(255, 255, 255); transform-origin: 269.91px 359.2px;" id="el4fzfmq2zef2" class="animable"></path><path d="M316.37,357.85h16.2a1.34,1.34,0,0,1,1.35,1.35h0a1.35,1.35,0,0,1-1.35,1.35h-16.2A1.36,1.36,0,0,1,315,359.2h0A1.35,1.35,0,0,1,316.37,357.85Z" style="fill: rgb(255, 255, 255); transform-origin: 324.46px 359.2px;" id="ell3m2uzjcvi" class="animable"></path><path d="M215.12,346.45h69.3a1.34,1.34,0,0,1,1.35,1.35h0a1.35,1.35,0,0,1-1.35,1.35h-69.3a1.36,1.36,0,0,1-1.35-1.35h0A1.35,1.35,0,0,1,215.12,346.45Z" style="fill: rgb(255, 255, 255); transform-origin: 249.77px 347.8px;" id="elirwqel53f3" class="animable"></path><path d="M294.55,346.45h38a1.34,1.34,0,0,1,1.35,1.35h0a1.35,1.35,0,0,1-1.35,1.35h-38a1.35,1.35,0,0,1-1.35-1.35h0A1.34,1.34,0,0,1,294.55,346.45Z" style="fill: rgb(255, 255, 255); transform-origin: 313.55px 347.8px;" id="el7oh0k1qe6pf" class="animable"></path></g><g id="freepik--Character--inject-2" class="animable" style="transform-origin: 349.08px 346.423px;"><path d="M317.41,285c.12-4.24,5.4-5.75,5.4-5.75s-.15-.41-.32-1c0,0,.48.6,3.17-.65s3.62-1.72,3.62-1.72a24.41,24.41,0,0,0-5,1.56,1.56,1.56,0,0,1-2.21-.7c-.21-.47-.53-3.08.74-1.89,2.27,2.12,15.44-5.88,19.89-.75s-3.54,6.46-3.54,6.46c-7.88,2.22-12.63,8.41-14.72,11.79-.86,1.38-1.76.34-1.93-.11-.54-1.44-.21-2.14,2.72-5.52,0,0-1.71.82-3.37,4.1-.45-1-.92-1.74-1.58-.72s-1.56,1.11-2,.19c-.08-.19-.37-1.77,2.21-4.88a4.44,4.44,0,0,0-2.84,3.11A15.26,15.26,0,0,1,317.41,285Z" style="fill: rgb(38, 50, 56); transform-origin: 330.72px 282.696px;" id="elbkngt30oez" class="animable"></path><path d="M341.27,280s1.14-4.68-5.86-2.35-2.78,5.1-2.78,5.1Z" style="fill: #0D4D9C; transform-origin: 336.354px 279.875px;" id="el0vrk3y0quvw" class="animable"></path><g id="el8xkdxcwnfco"><path d="M341.27,280s1.14-4.68-5.86-2.35-2.78,5.1-2.78,5.1Z" style="opacity: 0.2; transform-origin: 336.354px 279.875px;" class="animable" id="elf62k4l84a5"></path></g><path d="M343.25,281.94s1.38-5.65-7.08-2.84-3.36,6.17-3.36,6.17Z" style="fill: #0D4D9C; transform-origin: 337.31px 281.793px;" id="ela5y0su3af0n" class="animable"></path><path d="M340.18,317.67s2.44-5.88-9.48-8.13-14.19.44-10.7,4.8l4.82,3.33,9.78,3.23,4.19-1.81Z" style="fill: rgb(38, 50, 56); transform-origin: 329.447px 314.814px;" id="el9g10o4rlplk" class="animable"></path><g id="elgvz8znugpdn"><path d="M340.18,317.67s2.44-5.88-9.48-8.13-14.19.44-10.7,4.8l4.82,3.33,9.78,3.23,4.19-1.81Z" style="opacity: 0.2; transform-origin: 329.447px 314.814px;" class="animable" id="elq686ku88al"></path></g><path d="M297.93,357.54c-18.34,42.3,4.94,58.81,33.95,57.82s81.44-17.14,74.18-37.41c-5.83-16.3-53.36-9.05-68.19-5.6l-7.47-11.83Z" style="fill: #0D4D9C; transform-origin: 349.08px 386.471px;" id="el6ka5spdy6yd" class="animable"></path><g id="eln73kh6oktak"><path d="M297.93,357.54c-18.34,42.3,4.94,58.81,33.95,57.82s81.44-17.14,74.18-37.41c-5.83-16.3-53.36-9.05-68.19-5.6l-7.47-11.83Z" style="isolation: isolate; opacity: 0.2; transform-origin: 349.08px 386.471px;" class="animable" id="ell9mxlx3ljzp"></path></g><polygon points="368.57 405.17 355.01 408.06 349.46 409.24 347.99 402.97 353.72 400.93 365.66 396.68 368.57 405.17" style="fill: rgb(238, 193, 187); transform-origin: 358.28px 402.96px;" id="eldem7tku7kmq" class="animable"></polygon><g id="el1504vdkneqa"><polygon points="368.57 405.17 355.01 408.06 353.72 400.93 365.66 396.68 368.57 405.17" style="isolation: isolate; opacity: 0.2; transform-origin: 361.145px 402.37px;" class="animable" id="elrvrk0l6ytkl"></polygon></g><polygon points="354.37 399.72 358.26 397.57 360.56 409.38 357.13 409.13 354.37 399.72" style="fill: #0D4D9C; transform-origin: 357.465px 403.475px;" id="el2wr6jc3l2" class="animable"></polygon><g id="elmhnq058kzke"><polygon points="354.37 399.72 358.26 397.57 360.56 409.38 357.13 409.13 354.37 399.72" style="fill: rgb(255, 255, 255); opacity: 0.3; transform-origin: 357.465px 403.475px;" class="animable" id="elxrzj62pgane"></polygon></g><g id="el6kou3t15zdn"><path d="M337.88,372.35s62.32-9.05,59.22,2.53c-2.37,8.84-28.12,19.47-28.12,19.47-24-11.73-43.77-11.29-43.77-11.29Z" style="isolation: isolate; opacity: 0.1; transform-origin: 361.211px 381.667px;" class="animable" id="eluk39mcjtc9k"></path></g><path d="M299.59,346.19c1.64-10.05,4.41-24.05,7.89-30.05a6.9,6.9,0,0,1,2.31-2.63s1.4-.12,3.82-.12h.18a80.4,80.4,0,0,1,24.84,4.18,68.41,68.41,0,0,1,8.14,3.32s-3.45,20.89-7.36,25-9,14.65-9,14.65l-32.47-3S298.52,352.69,299.59,346.19Z" style="fill: rgb(38, 50, 56); transform-origin: 322.355px 336.965px;" id="elk0tgafjlpu" class="animable"></path><path d="M336,311.3a30,30,0,0,1,1.93-3.79l-8.66-5.46a19.06,19.06,0,0,1,0,2.39c-.19,3-1.24,8.16-5.87,10,0,0,2,7.67,8.38,8.32a4.44,4.44,0,0,0,1,0,4.11,4.11,0,0,0,3.42-4.7s-1.15-.51-1.21-2.51A10.81,10.81,0,0,1,336,311.3Z" style="fill: rgb(238, 193, 187); transform-origin: 330.665px 312.419px;" id="elemortxzs9fm" class="animable"></path><g id="eli5nl5as06u"><path d="M328.23,302.33a15.73,15.73,0,0,1,.24,2.37l0,.06s1.93,10.76,6.8,10.38a10.83,10.83,0,0,1,.54-4.3,31.74,31.74,0,0,1,1.54-4Z" style="isolation: isolate; opacity: 0.2; transform-origin: 332.79px 308.74px;" class="animable" id="elom2l3ng4y9"></path></g><path d="M335.19,314.34c9.72,3.93,14.48-1.46,17-12.46,2-8.82.69-14.13-7.69-16.68C330.59,281,321.9,306.87,335.19,314.34Z" style="fill: rgb(238, 193, 187); transform-origin: 340.804px 300.181px;" id="elapnkg93grcp" class="animable"></path><path d="M345.52,306.84a2.37,2.37,0,0,0,2.49-.27,18.76,18.76,0,0,1-1.37-4.22Z" style="fill: rgb(213, 135, 69); transform-origin: 346.765px 304.712px;" id="el35kh6ev7861" class="animable"></path><path d="M341.83,299.27c.17-.61.59-1,1-1l0,0,1.67-.17a1.9,1.9,0,0,1-1.1.52,1.48,1.48,0,0,1,.12,1.16c-.2.69-.73,1.15-1.19,1S341.63,300,341.83,299.27Z" style="fill: rgb(38, 50, 56); transform-origin: 343.129px 299.454px;" id="elbqelg66gpy" class="animable"></path><path d="M349.48,301.54c.17-.61.61-1,1-1l1.62-.17a1.91,1.91,0,0,1-1.1.51,1.47,1.47,0,0,1,.11,1.17c-.19.69-.72,1.15-1.18,1S349.29,302.23,349.48,301.54Z" style="fill: rgb(38, 50, 56); transform-origin: 350.753px 301.724px;" id="el1tfc3ca4z3" class="animable"></path><path d="M341.43,294.84h0a.36.36,0,0,1,.34-.38,4.87,4.87,0,0,1,3.88,2,.36.36,0,0,1-.59.42,4.24,4.24,0,0,0-3.25-1.72.35.35,0,0,1-.2-.05A.33.33,0,0,1,341.43,294.84Z" style="fill: rgb(38, 50, 56); transform-origin: 343.573px 295.746px;" id="el2s6oaxcll3v" class="animable"></path><path d="M353,298.69a3.6,3.6,0,0,0-3.19-.5h0a.39.39,0,0,1-.48-.2h0a.37.37,0,0,1,.19-.48,4.42,4.42,0,0,1,3.85.55l0,0a.34.34,0,0,1,.11.48.32.32,0,0,1-.19.15A.37.37,0,0,1,353,298.69Z" style="fill: rgb(38, 50, 56); transform-origin: 351.419px 298.007px;" id="elu778r0ru86o" class="animable"></path><path d="M329.14,306.44c-5.52-8.55.84-29.64,15.14-24.91s8.11,19.19,8.11,19.19c2.49-9.88-1.63-11.36-6.44-12.64a7.44,7.44,0,0,0-8.44,3.56,10.87,10.87,0,0,1-6.47,4.88C327.31,300.09,329.18,306.44,329.14,306.44Z" style="fill: rgb(38, 50, 56); transform-origin: 340.443px 293.644px;" id="el58pmf51bfoe" class="animable"></path><path d="M343.23,309a2.79,2.79,0,0,1-2.78-2.37.21.21,0,0,1,.19-.24.22.22,0,0,1,.24.19,2.31,2.31,0,0,0,2.36,2,.24.24,0,0,1,.19.18.23.23,0,0,1-.19.26Z" style="fill: rgb(46, 53, 58); transform-origin: 341.94px 307.704px;" id="el59wyz0iv3ce" class="animable"></path><path d="M342.48,335.18s2.85,19.09,4.76,22.76,13.91,16,13.91,16l3.2-1.66s-11.28-14.1-12.08-16.74S349,330.75,349,330.75Z" style="fill: rgb(238, 193, 187); transform-origin: 353.415px 352.345px;" id="ell5z4pw14hm8" class="animable"></path><path d="M340.54,333.6l1.47-8.31,4.74-4.39c3.54,1.88,4.19,12.84,4.34,17.3.13,3.87.22,12.75,1.74,16.65,1.72,4.4,11,15.38,11,15.38l-4.37,3.12s-11-9.25-14.11-16.37S340.54,333.6,340.54,333.6Z" style="fill: rgb(38, 50, 56); transform-origin: 352.185px 347.125px;" id="eldfdc52vh4jb" class="animable"></path><path d="M348.76,410.66a.21.21,0,0,1,.2-.08.2.2,0,0,1,.17.13c0,.09,1.05,3.15.43,4.38a1,1,0,0,1-.57.46.74.74,0,0,1-.81-.15,3.42,3.42,0,0,1-.13-2.4A13.72,13.72,0,0,1,348.76,410.66Zm.57,3.86a8.76,8.76,0,0,0-.45-3.21c-.47,1.41-.85,3.36-.42,3.83.05.07.16.15.4.05a.55.55,0,0,0,.34-.31,2.06,2.06,0,0,0,.12-.35Z" style="fill: #0D4D9C; transform-origin: 348.824px 413.094px;" id="elny9oa3lxl7i" class="animable"></path><path d="M348.79,410.62a.21.21,0,0,1,.19-.08c.09,0,2.14.66,2.75,1.81a1.42,1.42,0,0,1,.1,1.07c-.15.49-.44.61-.66.58-.87,0-2.17-2.21-2.39-3.23l0-.07A.2.2,0,0,1,348.79,410.62Zm2.71,2.59a1,1,0,0,0-.1-.68,4.44,4.44,0,0,0-2.18-1.51c.37,1,1.45,2.56,2,2.62.06,0,.19,0,.29-.33v-.1Z" style="fill: #0D4D9C; transform-origin: 350.335px 412.271px;" id="elzfc6eqzefqd" class="animable"></path><path d="M349,411.77c-2.72,2-4.68,2.2-6.73,8.23-.45,1.29-3.93,0-3.25-3.15,1.14-5.25,1.44-4,2.35-8.49.81-3.78,1.19-6.52,1.75-9.58l.11-.25h0a1.14,1.14,0,0,1,1.52-.6l6.59,2.94a.69.69,0,0,1,.39.77l-1.7,8.45A2.77,2.77,0,0,1,349,411.77Z" style="fill: rgb(38, 50, 56); transform-origin: 345.338px 409.163px;" id="el3q9qixcsvyf" class="animable"></path><polygon points="375.51 401.41 388.77 405.45 394.21 407.1 392.45 413.3 386.45 412.31 373.95 410.26 375.51 401.41" style="fill: rgb(238, 193, 187); transform-origin: 384.08px 407.355px;" id="eld9wzxlv0xhh" class="animable"></polygon><g id="elg5i48pxeudg"><polygon points="375.51 401.41 388.77 405.45 386.45 412.31 373.95 410.26 375.51 401.41" style="isolation: isolate; opacity: 0.2; transform-origin: 381.36px 406.86px;" class="animable" id="el2fnm0ch7ksr"></polygon></g><path d="M384.64,412.06c-28.05-2.42-60.12-12.77-60.12-12.77s-5.16-5.06-6.48-1.43,7.81,16.52,7.81,16.52-13.4-2.4-20.66-12.07-4.69-25.19,12.87-26,68.56,27.84,68.56,27.84Z" style="fill: #0D4D9C; transform-origin: 344.008px 395.337px;" id="elt5f9y92l3p" class="animable"></path><polygon points="385.3 412.81 380.85 412.81 384.56 401.43 387.44 403.37 385.3 412.81" style="fill: #0D4D9C; transform-origin: 384.145px 407.12px;" id="el8e5us8t9iw" class="animable"></polygon><g id="ellvm9yzhydvj"><polygon points="385.3 412.81 380.85 412.81 384.56 401.43 387.44 403.37 385.3 412.81" style="fill: rgb(255, 255, 255); opacity: 0.3; transform-origin: 384.145px 407.12px;" class="animable" id="elbr932d95y4h"></polygon></g><path d="M395.47,405.38a.22.22,0,0,1-.36-.1c0-.1-.54-3.28.27-4.39a1,1,0,0,1,.64-.36.71.71,0,0,1,.77.27,3.41,3.41,0,0,1-.25,2.39A13.45,13.45,0,0,1,395.47,405.38Zm0-3.9a8.62,8.62,0,0,0-.07,3.24c.69-1.31,1.38-3.18,1-3.7,0-.08-.13-.18-.4-.12a.55.55,0,0,0-.37.26,1.41,1.41,0,0,0-.17.32Z" style="fill: #0D4D9C; transform-origin: 395.917px 402.971px;" id="elth1g8p26r2p" class="animable"></path><path d="M395.43,405.43a.22.22,0,0,1-.19,0c-.09-.05-2-1-2.43-2.22a1.37,1.37,0,0,1,.07-1.07c.22-.47.52-.53.74-.48.85.17,1.79,2.54,1.85,3.58l0,.07Zm-2.26-3a1,1,0,0,0,0,.69,4.44,4.44,0,0,0,1.91,1.83c-.2-1.08-1-2.76-1.54-2.9-.06,0-.19,0-.33.28l0,.1Z" style="fill: #0D4D9C; transform-origin: 394.102px 403.548px;" id="el4uxssm2vzko" class="animable"></path><path d="M395.44,404.26c3-1.5,5-1.43,7.95-7.05.66-1.21,3.89.6,2.71,3.62-2,5-2.05,3.73-3.66,8-1.4,3.6-2.21,6.24-3.25,9.18l-.15.22h0a1.14,1.14,0,0,1-1.59.35l-6-4a.7.7,0,0,1-.27-.82l3-8.08A2.76,2.76,0,0,1,395.44,404.26Z" style="fill: rgb(38, 50, 56); transform-origin: 398.748px 407.798px;" id="el88ov8lffzg2" class="animable"></path><g id="elzvouoio5up"><path d="M308,358.47a35.72,35.72,0,0,1-2.26-4.2c-2.18-4.67-2.87-16-3.08-23.86a90.83,90.83,0,0,1,2.73-9.58l5.68-2.56,2.67,4.51,1.65,3.51s1.73,21.13,6,26.06c2.79,3.18,5.58,6.25,7.21,8Z" style="opacity: 0.2; transform-origin: 315.63px 339.31px;" class="animable" id="elbmngkg054y"></path></g><path d="M337.15,373.11s-18.89-17.7-20.69-22.49-2.86-26.16-2.86-26.16l-8.6,4.13s5.11,26,6.7,28.51c2.15,3.46,21.69,17.93,21.69,17.93Z" style="fill: rgb(238, 193, 187); transform-origin: 321.075px 349.745px;" id="elbsxwgsyydow" class="animable"></path><path d="M309.78,313.52c6.68-1.64,5.47,14.47,5.68,19.65.17,4.06,1,13.23,2.87,17.27,2.75,5.88,16.57,19.85,16.57,19.85l-3.51,3.92s-18.25-12.81-21.22-17.36C307.8,353.23,296.63,316.75,309.78,313.52Z" style="fill: rgb(38, 50, 56); transform-origin: 319.194px 343.807px;" id="eld8bjn2xw43o" class="animable"></path><g id="elatsqfh63laq"><path d="M344.78,330.89c0,4.17,0,14.31-1.39,20.05-.73-3-1.32-6.22-1.77-9.1A81.62,81.62,0,0,0,344.78,330.89Z" style="opacity: 0.2; transform-origin: 343.2px 340.915px;" class="animable" id="el32n8clbvvpi"></path></g><path d="M331.87,295.3s3.59,1.47.86,5.49A6.76,6.76,0,0,0,331.87,295.3Z" style="fill: rgb(38, 50, 56); transform-origin: 332.812px 298.045px;" id="elm0bua43vshj" class="animable"></path><path d="M331.66,327.6s11.77-9.88,7.65-11.57S329.65,323.35,331.66,327.6Z" style="fill: rgb(38, 50, 56); transform-origin: 335.71px 321.711px;" id="elps71907w8s" class="animable"></path><g id="el0l95wlxt1rc"><path d="M320.17,317.44l-3-3.94q2.85.15,5.69.5l3.56,4.27,2.83,4.51,1.45,1.68v2.22S323.58,321.94,320.17,317.44Z" style="opacity: 0.2; transform-origin: 323.935px 320.09px;" class="animable" id="elnn625wdcz5d"></path></g><path d="M331.67,328.21s.05-15.93-10.33-18.06S332.05,326.78,331.67,328.21Z" style="fill: rgb(38, 50, 56); transform-origin: 325.07px 319.096px;" id="elts2cjko402" class="animable"></path><path d="M353,293.35v-.17c1.5-.09,4.74.09,4.42,3.28-.42,4.13-3.67,9.46-1.58,11.79,0,0-3.22-1.27-1-10.33C355.69,294.53,354.05,293.6,353,293.35Z" style="fill: rgb(38, 50, 56); transform-origin: 355.221px 300.707px;" id="elvyyvn7y0gt" class="animable"></path><path d="M329.46,301.84c-6.07-3.25-3.2-8.2-.52-7.69h0a3.83,3.83,0,0,1,2.93,4.56C331.13,301.56,330.33,302.31,329.46,301.84Z" style="fill: rgb(238, 193, 187); transform-origin: 328.91px 298.042px;" id="eljqxsjorh3" class="animable"></path><path d="M339.18,299.82l-8.75-5,.28-.84,8.82,5,5.62,2.05,2.94,1,4.83,1.57-.3,1.45c-.21,1.06-1.05,1.69-1.86,1.41l-1.87-.65a2.1,2.1,0,0,1-1.08-2.43l.09-.46L345,302l-.09.47c-.22,1.05-1.05,1.68-1.87,1.4l-2.87-1a2.11,2.11,0,0,1-1.08-2.43Z" style="fill: rgb(38, 50, 56); transform-origin: 341.675px 300.253px;" id="elmhex4re3e9" class="animable"></path><g id="elv1bpzl1hyfh"><g style="opacity: 0.4; transform-origin: 345.7px 304.099px;" class="animable" id="el1uq4h0ygah3"><path d="M344.5,303.27a1.3,1.3,0,0,1-1.49.55l-2.87-1a1.73,1.73,0,0,1-1-1.18A8.69,8.69,0,0,1,344.5,303.27Z" id="elwygk0id3ock" class="animable" style="transform-origin: 341.82px 302.757px;"></path><path d="M352.26,305.93a1.32,1.32,0,0,1-1.5.58l-1.87-.65a1.81,1.81,0,0,1-1.07-1.39A8.56,8.56,0,0,1,352.26,305.93Z" id="el33up4gqomgc" class="animable" style="transform-origin: 350.04px 305.517px;"></path></g></g><path d="M364.63,371.38l7-.82a1.08,1.08,0,0,1,.95.36L376.2,375a1.09,1.09,0,0,1-.27,1.67l-1.05.61a1.08,1.08,0,0,1-.86.1l-6.21-1.85-.13,0-6.11-1a1.09,1.09,0,0,1-.84-1.45h0a1.1,1.1,0,0,1,.71-.67l3-.92Z" style="fill: rgb(238, 193, 187); transform-origin: 368.57px 373.989px;" id="elv1cbh5lgtkq" class="animable"></path><path d="M336.6,372.42l7-.82a1.1,1.1,0,0,1,.95.36l3.61,4.08a1.09,1.09,0,0,1-.26,1.67l-1.05.61a1.15,1.15,0,0,1-.87.11l-6.21-1.86-.13,0-6.1-1a1.09,1.09,0,0,1-.85-1.45h0a1.1,1.1,0,0,1,.71-.67l3-.92Z" style="fill: rgb(238, 193, 187); transform-origin: 340.532px 375.031px;" id="elhrx7qfot8p9" class="animable"></path><g id="eldgttvvkxgfd"><rect x="355.1" y="376.99" width="17.25" height="2.77" style="fill: rgb(38, 50, 56); transform-origin: 363.725px 378.375px; transform: rotate(180deg);" class="animable" id="elhg6ibms4dsj"></rect></g><g id="eld93ui0gie3f"><path d="M333.29,377h21.88a1.36,1.36,0,0,1,1.36,1.36v1.41a0,0,0,0,1,0,0H333.29a0,0,0,0,1,0,0V377A0,0,0,0,1,333.29,377Z" style="fill: rgb(38, 50, 56); transform-origin: 344.91px 378.385px; transform: rotate(180deg);" class="animable" id="el9z7z0xc3cde"></path></g><g id="el59k4411zjqd"><path d="M333.29,377h21.88a1.36,1.36,0,0,1,1.36,1.36v1.41a0,0,0,0,1,0,0H333.29a0,0,0,0,1,0,0V377A0,0,0,0,1,333.29,377Z" style="fill: rgb(255, 255, 255); opacity: 0.3; transform-origin: 344.91px 378.385px; transform: rotate(180deg);" class="animable" id="el10qryh1tgze"></path></g><g id="el0s23igc0tac"><rect x="350.28" y="377.89" width="2.77" height="0.98" style="fill: rgb(38, 50, 56); transform-origin: 351.665px 378.38px; transform: rotate(180deg);" class="animable" id="elfa79oikjm9k"></rect></g><g id="elvma6erqf7bc"><rect x="345.96" y="377.89" width="2.77" height="0.98" style="fill: rgb(38, 50, 56); transform-origin: 347.345px 378.38px; transform: rotate(180deg);" class="animable" id="elfqw11idheoo"></rect></g><polygon points="359.83 377 357.99 377 365.19 351.96 367.03 351.96 359.83 377" style="fill: rgb(38, 50, 56); transform-origin: 362.51px 364.48px;" id="elr77rrxnl2jl" class="animable"></polygon><g id="els5ehi20ij5s"><polygon points="359.83 377 357.99 377 365.19 351.96 367.03 351.96 359.83 377" style="fill: rgb(255, 255, 255); opacity: 0.3; transform-origin: 362.51px 364.48px;" class="animable" id="elf0dxky0n2jt"></polygon></g><polygon points="359.15 377 391.52 377 398.72 351.96 366.35 351.96 359.15 377" style="fill: rgb(38, 50, 56); transform-origin: 378.935px 364.48px;" id="el0yakxuydcf1i" class="animable"></polygon><g id="eloq3wdetoks8"><polygon points="359.15 377 391.52 377 398.72 351.96 366.35 351.96 359.15 377" style="fill: rgb(255, 255, 255); opacity: 0.6; transform-origin: 378.935px 364.48px;" class="animable" id="elx7isplh16wh"></polygon></g><path d="M357.56,377h33.7c.57,0,1,.62,1,1.39s-.46,1.38-1,1.38h-33.7c-.57,0-1-.62-1-1.38S357,377,357.56,377Z" style="fill: rgb(38, 50, 56); transform-origin: 374.41px 378.385px;" id="el7h493l6evjn" class="animable"></path><g id="eluq90hkextze"><path d="M357.56,377h33.7c.57,0,1,.62,1,1.39s-.46,1.38-1,1.38h-33.7c-.57,0-1-.62-1-1.38S357,377,357.56,377Z" style="fill: rgb(255, 255, 255); opacity: 0.5; transform-origin: 374.41px 378.385px;" class="animable" id="elktd4s5x9u1"></path></g><ellipse cx="357.56" cy="378.38" rx="1.03" ry="1.38" style="fill: rgb(38, 50, 56); transform-origin: 357.56px 378.38px;" id="ela7ug7yoottf" class="animable"></ellipse><g id="el6ex2382o317"><ellipse cx="357.56" cy="378.38" rx="1.03" ry="1.38" style="fill: rgb(255, 255, 255); opacity: 0.3; transform-origin: 357.56px 378.38px;" class="animable" id="elza952gmm7g9"></ellipse></g><g id="elp1772slxke"><polygon points="377.99 366.19 382.4 366.19 383.38 362.77 378.97 362.77 377.99 366.19" style="fill: rgb(255, 255, 255); opacity: 0.6; transform-origin: 380.685px 364.48px;" class="animable" id="el3zp1j7dqvq8"></polygon></g></g><defs>     <filter id="active" height="200%">         <feMorphology in="SourceAlpha" result="DILATED" operator="dilate" radius="2"></feMorphology>                <feFlood flood-color="#32DFEC" flood-opacity="1" result="PINK"></feFlood>        <feComposite in="PINK" in2="DILATED" operator="in" result="OUTLINE"></feComposite>        <feMerge>            <feMergeNode in="OUTLINE"></feMergeNode>            <feMergeNode in="SourceGraphic"></feMergeNode>        </feMerge>    </filter>    <filter id="hover" height="200%">        <feMorphology in="SourceAlpha" result="DILATED" operator="dilate" radius="2"></feMorphology>                <feFlood flood-color="#ff0000" flood-opacity="0.5" result="PINK"></feFlood>        <feComposite in="PINK" in2="DILATED" operator="in" result="OUTLINE"></feComposite>        <feMerge>            <feMergeNode in="OUTLINE"></feMergeNode>            <feMergeNode in="SourceGraphic"></feMergeNode>        </feMerge>            <feColorMatrix type="matrix" values="0   0   0   0   0                0   1   0   0   0                0   0   0   0   0                0   0   0   1   0 "></feColorMatrix>    </filter></defs></svg>